<svg width="50" height="50" fill="none" xmlns="http://www.w3.org/2000/svg"><rect width="50" height="50" rx="25" fill="#fff" fill-opacity=".1"/><path d="M24.215 29.714a.786.786 0 000 1.572h1.571a.786.786 0 000-1.572h-1.571z" fill="#BCFB9F"/><path fill-rule="evenodd" clip-rule="evenodd" d="M18.715 20.6c0-1.76 0-2.64.342-3.313a3.143 3.143 0 011.374-1.373c.672-.343 1.552-.343 3.312-.343h2.515c1.76 0 2.64 0 3.312.343a3.143 3.143 0 011.374 1.373c.342.673.342 1.553.342 3.313v8.8c0 1.76 0 2.64-.342 3.312a3.142 3.142 0 01-1.374 1.374c-.672.342-1.552.342-3.312.342h-2.515c-1.76 0-2.64 0-3.312-.342a3.142 3.142 0 01-1.374-1.374c-.342-.672-.342-1.552-.342-3.312v-8.8zm5.028-3.457h2.515c.906 0 1.49 0 1.936.037.427.035.585.094.663.134.296.15.536.391.687.687.04.077.098.236.133.663.037.445.038 1.03.038 1.936v8.8c0 .906-.001 1.49-.038 1.936-.035.427-.094.585-.133.663a1.578 1.578 0 01-.687.687c-.078.04-.236.099-.663.133-.445.037-1.03.038-1.936.038h-2.515c-.906 0-1.49-.001-1.936-.038-.427-.035-.585-.094-.663-.133a1.571 1.571 0 01-.686-.687c-.04-.078-.1-.236-.134-.663-.037-.445-.038-1.03-.038-1.936v-8.8c0-.906.002-1.491.038-1.936.035-.427.094-.586.133-.663.151-.296.392-.536.687-.687.078-.04.236-.099.663-.134.445-.036 1.03-.037 1.936-.037z" fill="#BCFB9F"/></svg>