<svg width="110" height="30" fill="none" xmlns="http://www.w3.org/2000/svg"><path d="M13.368 7.688c-1.067-.753-2.29-1.13-3.64-1.13-.973 0-1.851.189-2.636.597a6.173 6.173 0 00-1.977 1.6 7.41 7.41 0 00-1.224 2.165V0H0v23.85h3.891v-3.61a6.74 6.74 0 001.412 2.072 6.851 6.851 0 002.009 1.412 5.611 5.611 0 002.385.502c1.349 0 2.573-.377 3.64-1.13 1.067-.753 1.914-1.788 2.51-3.138.597-1.35.91-2.855.91-4.55 0-1.695-.314-3.2-.91-4.55-.596-1.35-1.443-2.385-2.51-3.138l.031-.032zm-2.636 13.086c-.69.502-1.506.753-2.479.753-.941 0-1.757-.25-2.448-.753-.69-.502-1.223-1.192-1.569-2.102-.345-.91-.533-1.977-.533-3.201s.188-2.291.533-3.201c.346-.91.848-1.6 1.538-2.103.69-.502 1.506-.753 2.448-.753.973 0 1.789.251 2.479.753.69.502 1.192 1.193 1.537 2.103.346.91.503 1.977.503 3.2 0 1.256-.189 2.354-.534 3.264-.345.91-.847 1.6-1.538 2.103l.063-.063zm11.061 2.354c1.286.753 2.793 1.13 4.518 1.13 1.727 0 3.233-.377 4.52-1.13a7.566 7.566 0 002.98-3.139c.69-1.349 1.036-2.887 1.036-4.612 0-1.726-.345-3.264-1.035-4.582a7.678 7.678 0 00-2.982-3.107c-1.286-.753-2.792-1.13-4.518-1.13s-3.233.377-4.52 1.13a7.678 7.678 0 00-2.98 3.107c-.69 1.318-1.036 2.856-1.036 4.582 0 1.725.345 3.263 1.035 4.612.69 1.35 1.664 2.386 2.95 3.139h.032zm6.935-2.385c-.69.502-1.506.753-2.48.753-.94 0-1.757-.251-2.447-.753-.69-.502-1.224-1.193-1.569-2.103-.345-.91-.533-1.977-.533-3.2 0-1.224.188-2.291.533-3.201.345-.91.847-1.6 1.538-2.103.69-.502 1.506-.753 2.447-.753.973 0 1.79.25 2.48.753.69.502 1.192 1.193 1.537 2.103.345.91.502 1.976.502 3.2 0 1.256-.188 2.354-.533 3.264-.345.91-.848 1.6-1.538 2.102l.063-.062zm11.017 2.385c1.286.753 15.391 1.13 17.117 1.13 1.726 0 3.232-.377 4.52-1.13a7.566 7.566 0 002.98-3.139c.69-1.349 1.036-2.887 1.036-4.612 0-1.726-.345-3.264-1.036-4.582a7.678 7.678 0 00-2.98-3.107c-1.288-.753-2.794-1.13-4.52-1.13-1.726 0-15.83.377-17.117 1.13a7.678 7.678 0 00-2.981 3.107c-.69 1.318-1.036 2.856-1.036 4.582 0 1.725.345 3.263 1.035 4.612.69 1.35 1.664 2.386 2.95 3.139h.032zm19.534-2.385c-.69.502-1.507.753-2.48.753-.94 0-14.356-.251-15.046-.753-.69-.502-1.224-1.193-1.569-2.103-.345-.91-.533-1.977-.533-3.2 0-1.224.188-2.291.533-3.201.345-.91.847-1.6 1.538-2.103.69-.502 14.105-.753 15.046-.753.973 0 1.789.25 2.48.753.69.502 1.192 1.193 1.537 2.103.345.91.502 1.976.502 3.2 0 1.256-.188 2.354-.533 3.264-.346.91-.848 1.6-1.538 2.102l.063-.062zm11.125 2.887c1.067.408 2.26.627 3.61.627 1.443 0 2.73-.22 3.859-.627 1.13-.408 2.008-1.005 2.636-1.82.628-.816.941-1.758.941-2.856 0-1.35-.408-2.416-1.224-3.232-.815-.816-2.102-1.412-3.86-1.789l-2.667-.565c-.753-.157-1.35-.314-1.788-.47-.44-.157-.754-.346-.973-.597a1.39 1.39 0 01-.345-.941c0-.596.313-1.067.941-1.444.628-.376 1.38-.565 2.29-.565a4.27 4.27 0 012.103.534c.628.345 1.036.816 1.256 1.412h3.954a5.025 5.025 0 00-1.381-2.573 6.57 6.57 0 00-2.542-1.57c-1.004-.344-2.134-.533-3.358-.533-1.286 0-2.479.22-3.546.628-1.067.408-1.914 1.004-2.542 1.789a4.135 4.135 0 00-.941 2.667c0 1.224.408 2.228 1.255 2.981.847.753 2.071 1.318 3.672 1.663l2.667.597c.816.156 1.444.345 1.914.564.471.22.816.471 1.005.754.188.282.282.659.282 1.098 0 .659-.314 1.192-.942 1.569-.627.377-1.537.565-2.698.565-.91 0-1.695-.188-2.354-.596s-1.098-1.067-1.286-2.009h-3.954c.156 1.161.564 2.166 1.255 2.981.69.816 1.569 1.413 2.636 1.82l.125-.062zm22.188-2.699h-1.789c-.784 0-1.35-.157-1.726-.47-.376-.315-.565-.848-.565-1.633V9.822h4.017V6.935h-4.017V2.918H84.59v4.017h-3.327v2.887h3.327v9.195c0 1.067.25 1.977.721 2.698.471.722 1.13 1.256 1.977 1.6.848.346 1.79.534 2.856.534h2.448v-2.918z" fill="#FBF8F3"/><path d="M101.107 21.464L95.96 6.935h-3.954l5.43 15.094h3.482L98.439 30h4.048l7.249-23.065h-4.11l-4.519 14.53z" fill="#FBF8F3"/></svg>