<svg width="50" height="50" fill="none" xmlns="http://www.w3.org/2000/svg"><rect x="-.5" y=".5" width="49" height="49" rx="24.5" transform="matrix(-1 0 0 1 49 0)" stroke="#424046"/><path d="M18.158 24.444l5.5-5.5a.786.786 0 011.176 1.038l-.065.073-4.16 4.16h10.676c.402 0 .735.303.78.693l.005.092a.786.786 0 01-.694.78l-.091.006H20.61l4.159 4.158a.786.786 0 01.065 1.038l-.065.073a.786.786 0 01-1.037.066l-.074-.066-5.5-5.5-.076-.087-.057-.088-.042-.088-.027-.083-.02-.092-.005-.047-.003-.085.003-.055.012-.088.023-.087.035-.088.041-.076.053-.076a.774.774 0 01.063-.07l5.5-5.5-5.5 5.5z" fill="#FBF8F3"/></svg>