<svg width="24" height="24" fill="none" xmlns="http://www.w3.org/2000/svg"><path d="M12.163 9.34a.857.857 0 111.212 1.212l-3.576 3.576a1.29 1.29 0 000 1.819 1.29 1.29 0 001.818 0l6.667-6.667c1.373-1.373 1.298-3.551 0-4.85-1.297-1.297-3.476-1.372-4.848 0l-6.667 6.668c-2.187 2.186-2.146 5.734 0 7.88 2.145 2.145 5.692 2.185 7.879 0l3.576-3.577a.857.857 0 111.212 1.212L15.86 20.19c-2.862 2.862-7.495 2.81-10.304 0-2.809-2.809-2.862-7.441 0-10.303l6.667-6.667c2.062-2.062 5.324-1.95 7.274 0 1.949 1.949 2.061 5.211 0 7.273l-6.668 6.667c-1.137 1.137-3.04 1.203-4.242 0-1.203-1.203-1.138-3.105 0-4.243l3.576-3.576z" fill="#BCFB9F"/></svg>