<svg width="24" height="25" fill="none" xmlns="http://www.w3.org/2000/svg"><path d="M11.14 17.54a.857.857 0 100 1.713h1.715a.857.857 0 000-1.714H11.14z" fill="#16141E"/><path fill-rule="evenodd" clip-rule="evenodd" d="M5.14 7.596c0-1.92 0-2.88.374-3.613a3.429 3.429 0 011.499-1.499c.733-.373 1.693-.373 3.613-.373h2.743c1.92 0 2.88 0 3.614.373.645.329 1.17.853 1.498 1.499.374.733.374 1.693.374 3.613v9.6c0 1.92 0 2.88-.374 3.614a3.429 3.429 0 01-1.498 1.498c-.733.374-1.694.374-3.614.374h-2.743c-1.92 0-2.88 0-3.613-.374a3.429 3.429 0 01-1.499-1.498c-.373-.733-.373-1.694-.373-3.614v-9.6zm5.486-3.771h2.743c.989 0 1.627.001 2.113.04.465.039.638.104.723.147.322.164.584.426.749.749.043.085.108.257.146.723.04.486.04 1.124.04 2.112v9.6c0 .989 0 1.627-.04 2.113-.038.465-.103.638-.146.723a1.715 1.715 0 01-.75.749c-.084.043-.257.108-.723.146-.485.04-1.123.04-2.112.04h-2.743c-.988 0-1.626 0-2.112-.04-.466-.038-.638-.103-.723-.146a1.714 1.714 0 01-.75-.75c-.042-.084-.107-.257-.145-.722-.04-.486-.041-1.124-.041-2.113v-9.6c0-.988.001-1.626.04-2.112.039-.466.104-.638.147-.723.164-.323.426-.585.749-.75.085-.042.257-.107.723-.145.486-.04 1.124-.041 2.112-.041z" fill="#16141E"/></svg>