<svg width="607" height="775" fill="none" xmlns="http://www.w3.org/2000/svg"><path d="M635.761 1.416h-.134l-.117.067-.755.436c-3.047.02-7.4.872-12.868 2.432-5.56 1.587-12.311 3.918-20.079 6.892-15.538 5.948-35.171 14.478-57.53 24.798-44.721 20.642-100.373 48.46-156.027 77.14-111.308 57.362-222.65 118.194-246.61 132.027-47.964 27.692-83.86 62.239-107.664 103.648C10.178 390.257-1.28 434.911.983 483.169 3.245 531.418 18.1 579.3 45.53 626.809c27.429 47.508 61.469 84.315 101.629 109.537 40.162 25.224 84.561 37.629 132.313 37.718 47.763.09 95.63-13.723 143.594-41.416 23.96-13.833 132.313-79.842 237.643-147.556 52.666-33.858 104.582-68.146 144.819-96.554 20.117-14.203 37.321-26.941 50.241-37.423 6.46-5.241 11.854-9.922 16.008-13.944 4.146-4.013 7.087-7.398 8.608-10.044 23.799-41.4 35.256-86.052 33.492-133.446-1.763-47.39-16.619-95.273-44.047-142.782-27.43-47.509-61.469-84.314-102.123-110.397C727.048 14.416 683.52 1.506 635.761 1.416zM130.685 381.049l.388.139c11.142-24.758 29.723-44.658 56.642-60.2 13.056-7.538 113.653-63.318 214.379-116.871 50.363-26.776 100.752-52.993 140.245-72.344 19.747-9.676 36.763-17.632 49.687-23.082 6.462-2.725 11.893-4.821 16.126-6.191 2.117-.686 3.926-1.187 5.411-1.496 1.493-.311 2.622-.418 3.392-.34 27.029 2.731 52.701 13.123 76.654 32.552 23.97 19.443 46.093 45.709 65.493 79.311 19.399 33.601 31.085 65.893 35.939 96.374 4.851 30.469 1.88 57.393-9.265 82.157-.318.706-.975 1.63-1.991 2.768-1.01 1.131-2.349 2.448-4.001 3.938-3.303 2.981-7.833 6.636-13.425 10.87-11.182 8.467-26.58 19.225-44.833 31.489-36.504 24.526-84.404 55.056-132.774 85.283-96.741 60.455-195.346 119.685-208.402 127.223-26.92 15.542-53.444 21.683-80.457 18.953-27.019-2.73-51.821-13.618-75.782-33.054-23.964-19.439-45.217-46.203-64.622-79.814-19.899-34.467-32.082-67.621-36.936-98.1-4.682-29.409-2.077-55.515 8.132-79.565z" stroke="url(#paint0_linear_1440_3738)"/><defs><linearGradient id="paint0_linear_1440_3738" x1="141.037" y1="741.355" x2="596.037" y2="108.355" gradientUnits="userSpaceOnUse"><stop stop-color="#BCFB9F"/><stop offset="1" stop-color="#BCFB9F" stop-opacity="0"/></linearGradient></defs></svg>