<svg width="50" height="50" fill="none" xmlns="http://www.w3.org/2000/svg"><rect x=".5" y=".5" width="49" height="49" rx="24.5" stroke="#3E3C43"/><path d="M17.75 14.875a2.125 2.125 0 100 4.25 2.125 2.125 0 000-4.25zm-2 6a.125.125 0 00-.125.125v13c0 .069.056.125.125.125h4a.125.125 0 00.125-.125V21a.125.125 0 00-.125-.125h-4zm6.5 0a.125.125 0 00-.125.125v13c0 .069.056.125.125.125h4a.125.125 0 00.125-.125v-7a1.875 1.875 0 113.75 0v7c0 .069.056.125.125.125h4a.125.125 0 00.125-.125v-8.62c0-2.427-2.11-4.325-4.525-4.106a7.167 7.167 0 00-2.169.548l-1.306.56V21a.125.125 0 00-.125-.125h-4z" fill="#FBF8F3"/></svg>