<svg width="22" height="22" fill="none" xmlns="http://www.w3.org/2000/svg"><path d="M17.842 10.444l-5.5-5.5a.786.786 0 00-1.176 1.038l.065.074 4.16 4.158H4.714a.786.786 0 00-.78.694L3.93 11c0 .403.303.735.694.78l.091.006H15.39l-4.159 4.158a.786.786 0 00-.065 1.037l.065.074a.786.786 0 001.037.066l.074-.066 5.5-5.5.076-.087.057-.088.042-.088.027-.083.02-.092.005-.047.003-.085-.003-.055-.012-.088-.023-.087-.035-.088-.041-.076-.053-.076a.774.774 0 00-.063-.07l-5.5-5.5 5.5 5.5z" fill="#FBF8F3"/></svg>